<svg xmlns="http://www.w3.org/2000/svg" viewBox="0 0 64 64"><path fill="#FFFFFF" fill-rule="evenodd" d="M15.91 20.02L16.68 18.95L17.9 17.53L19.24 16.22L20.7 15.04L22.24 13.99L23.88 13.09L25.59 12.33L27.36 11.72L29.18 11.28L31.03 10.99L32.89 10.87L34.76 10.92L36.62 11.13L38.46 11.51L40.25 12.04L41.99 12.73L43.66 13.58L45.25 14.57L46.74 15.69L48.13 16.94L49.41 18.31L50.55 19.79L51.57 21.36L52.43 23.02L53.15 24.75L53.72 26.53L54.12 28.36L54.36 30.21L54.44 32.08L54.35 33.95L54.09 35.81L53.67 37.63L53.1 39.41L52.36 41.13L51.48 42.78L50.46 44.35L49.3 45.82L48.01 47.18L46.61 48.42L45.11 49.53L43.51 50.51L41.84 51.34L40.09 52.01L38.3 52.54L36.46 52.9L34.6 53.1L32.73 53.13L30.86 52.99L29.02 52.7L27.2 52.24L25.44 51.62L23.73 50.84L21.67 49.71L20.97 49.52L20.24 49.53L19.54 49.73L18.92 50.09L18.41 50.61L18.21 50.92L17.94 51.59L17.85 52.31L17.95 53.03L18.07 53.37L18.44 54L18.96 54.51L21.11 55.75L23.25 56.73L25.48 57.53L27.77 58.12L30.1 58.5L32.46 58.68L34.82 58.65L37.41 58.38L39.73 57.91L42 57.24L44.2 56.37L46.09 55.43L48.12 54.21L50.02 52.82L51.97 51.08L53.59 49.36L55.04 47.5L56.33 45.51L57.43 43.42L58.35 41.24L59.07 38.99L59.59 36.69L59.9 34.34L60 32.23L59.91 29.87L59.62 27.52L59.12 25.21L58.42 22.95L57.42 20.55L56.31 18.46L55.02 16.48L53.56 14.62L51.95 12.89L50.18 11.32L48.49 10.05L46.49 8.79L44.38 7.71L41.96 6.75L39.69 6.08L37.38 5.62L35.27 5.38L32.91 5.31L30.55 5.45L28.21 5.8L25.68 6.42L23.45 7.19L21.29 8.16L19.44 9.19L17.48 10.5L15.45 12.15L13.77 13.81L12.23 15.61L11 17.33L10.27 18.55L4 16.9L9.37 31.53L21.22 21.41ZM30.77 33.43L30.92 34.05L31.06 34.34L31.43 34.85L31.66 35.07L41.66 41.54L42.3 41.75L42.63 41.79L43.3 41.73L43.62 41.64L44.21 41.34L44.47 41.13L44.91 40.62L45.07 40.33L45.19 40.02L45.32 39.36L45.26 38.7L45.17 38.37L44.87 37.78L44.42 37.28L35.86 31.72L35.84 18.88L35.67 18.23L35.52 17.93L35.11 17.4L34.58 16.99L34.28 16.85L33.64 16.67L32.97 16.67L32.64 16.74L32.02 16.99L31.75 17.18L31.27 17.65L31.09 17.93L30.94 18.23L30.77 18.88Z"/></svg>
