<svg xmlns="http://www.w3.org/2000/svg" viewBox="0 0 64 64"><path fill="#FFFFFF" fill-rule="evenodd" d="M60 36.75L60 27.25L43 27.25L43 36.75ZM60 48.25L60 38.75L52.5 38.75L52.5 48.25ZM60 50.25L43 50.25L43 59.75L60 59.75ZM14.92 16.68L16.52 18.28L17.38 19.02L18.73 20.05L20.15 20.97L21.13 21.53L22.66 22.27L23.7 22.71L24.77 23.09L26.4 23.56L28.62 24L30.87 24.22L32.57 24.24L33.7 24.19L35.94 23.91L37.6 23.56L38.69 23.26L40.82 22.5L41.86 22.04L43.36 21.26L44.33 20.67L45.73 19.71L47.48 18.28L48.3 17.5L49.45 16.26L50.17 15.38L51 14.25L50.17 13.12L49.08 11.82L47.89 10.61L47.06 9.85L45.73 8.79L44.81 8.13L43.36 7.24L41.86 6.46L40.82 6L39.23 5.41L37.6 4.94L35.94 4.59L34.82 4.42L33.13 4.28L31.43 4.26L30.3 4.31L28.62 4.5L26.95 4.81L25.31 5.24L23.7 5.79L22.14 6.46L20.64 7.24L18.73 8.45L17.38 9.48L16.11 10.61L14.92 11.82L13.83 13.12L13 14.25L13.83 15.38ZM37.24 18.27L36.67 18.92L36.02 19.49L35.3 19.97L34.53 20.35L33.71 20.63L32.86 20.79L32 20.85L31.14 20.79L30.29 20.63L29.47 20.35L28.7 19.97L27.98 19.49L27.33 18.92L26.76 18.27L26.28 17.55L25.9 16.78L25.62 15.96L25.46 15.11L25.4 14.25L25.46 13.39L25.62 12.54L25.9 11.72L26.28 10.95L26.76 10.23L27.33 9.58L27.98 9.01L28.7 8.53L29.47 8.15L30.29 7.87L31.14 7.71L32 7.65L32.86 7.71L33.71 7.87L34.53 8.15L35.3 8.53L36.02 9.01L36.67 9.58L37.24 10.23L37.72 10.95L38.1 11.72L38.38 12.54L38.54 13.39L38.6 14.25L38.54 15.11L38.38 15.96L38.1 16.78L37.72 17.55ZM50.5 38.75L43 38.75L43 48.25L50.5 48.25ZM37.93 41.11L37.32 40.57L36.65 40.12L35.92 39.76L35.15 39.5L34.36 39.34L33.55 39.29L30.45 39.29L29.64 39.34L28.85 39.5L28.08 39.76L27.35 40.12L26.68 40.57L26.07 41.11L25.53 41.72L25.08 42.39L24.72 43.12L24.46 43.89L24.3 44.68L24.25 45.49L24.25 59.75L39.75 59.75L39.75 45.49L39.7 44.68L39.54 43.89L39.28 43.12L38.92 42.39L38.47 41.72ZM35.69 30.57L35.29 30.11L34.83 29.71L34.33 29.37L33.78 29.1L33.2 28.91L32.61 28.79L32 28.75L31.39 28.79L30.8 28.91L30.22 29.1L29.68 29.37L29.17 29.71L28.71 30.11L28.31 30.57L27.97 31.07L27.7 31.62L27.51 32.2L27.39 32.79L27.35 33.4L27.39 34.01L27.51 34.6L27.7 35.18L27.97 35.72L28.31 36.23L28.71 36.69L29.17 37.09L29.67 37.43L30.22 37.7L30.8 37.89L31.39 38.01L32 38.05L32.61 38.01L33.2 37.89L33.78 37.7L34.32 37.43L34.83 37.09L35.29 36.69L35.69 36.23L36.03 35.73L36.3 35.18L36.49 34.6L36.61 34.01L36.65 33.4L36.61 32.79L36.49 32.2L36.3 31.62L36.03 31.07ZM34.6 12.75L34.12 12.13L33.5 11.65L32.78 11.35L32.39 11.28L32 11.25L31.22 11.35L30.5 11.65L30.17 11.87L29.62 12.42L29.4 12.75L29.1 13.47L29.03 13.86L29.03 14.64L29.1 15.03L29.23 15.4L29.62 16.08L29.88 16.37L30.5 16.85L31.22 17.15L31.61 17.22L32.39 17.22L32.78 17.15L33.15 17.02L33.83 16.63L34.12 16.37L34.6 15.75L34.9 15.03L34.97 14.64L35 14.25L34.9 13.47ZM21 27.25L4 27.25L4 36.75L21 36.75ZM21 38.75L13.5 38.75L13.5 48.25L21 48.25ZM21 50.25L4 50.25L4 59.75L21 59.75ZM11.5 48.25L11.5 38.75L4 38.75L4 48.25Z"/></svg>
